<svg width="40" height="41" viewBox="0 0 40 41" fill="none" xmlns="http://www.w3.org/2000/svg">
<path d="M36.6666 20.339H3.33331" stroke="#F4F4F4" stroke-width="3" stroke-linecap="round" stroke-linejoin="round"/>
<path d="M9.08331 8.66102L3.33331 20.339V30.5085C3.33331 31.4075 3.6845 32.2697 4.30962 32.9054C4.93474 33.5412 5.78259 33.8983 6.66665 33.8983H33.3333C34.2174 33.8983 35.0652 33.5412 35.6903 32.9054C36.3155 32.2697 36.6666 31.4075 36.6666 30.5085V20.339L30.9166 8.66102C30.6407 8.09625 30.2153 7.62097 29.6882 7.28861C29.1612 6.95625 28.5535 6.78 27.9333 6.77966H12.0666C11.4465 6.78 10.8388 6.95625 10.3117 7.28861C9.78469 7.62097 9.35928 8.09625 9.08331 8.66102V8.66102Z" stroke="#F4F4F4" stroke-width="3" stroke-linecap="round" stroke-linejoin="round"/>
<path d="M10 27.1187H10.0167" stroke="#F4F4F4" stroke-width="3" stroke-linecap="round" stroke-linejoin="round"/>
<path d="M16.6667 27.1187H16.6834" stroke="#F4F4F4" stroke-width="3" stroke-linecap="round" stroke-linejoin="round"/>
</svg>
