<?xml version="1.0" encoding="utf-8"?>
<!-- Generator: Adobe Illustrator 26.0.1, SVG Export Plug-In . SVG Version: 6.00 Build 0)  -->
<svg version="1.1" id="Шар_1" xmlns="http://www.w3.org/2000/svg" xmlns:xlink="http://www.w3.org/1999/xlink" x="0px" y="0px"
	 viewBox="0 0 512 512" style="enable-background:new 0 0 512 512;" xml:space="preserve">
<style type="text/css">
	.st0{fill:#FFFFFF;}
	.st1{fill:#38543B;}
	.st2{fill:#418C4A;}
</style>
<rect x="0.3" y="0" class="st0" width="512" height="512"/>
<g>
	<path class="st1" d="M153.5,274.6c3.9,5.3,5.8,10,5.8,17.5c0,11.9-4.8,21.4-14.4,28.5c-9.6,7.1-22.3,10.7-38.2,10.7
		c-13.1,0-24.5-3-34.1-8.9c-6.6-4.1-11.9-9-16-15c-3.1-4.5-1.9-11.2,3-13.8l2.4-1.2c4.2-2.2,9.9-0.4,12.5,3.5
		c2.6,3.8,5.9,7.1,10,9.6c6.4,4.1,13.9,6.1,22.6,6.1c9.3,0,16.8-1.9,22.2-5.8c5.5-3.9,8.2-9.2,8.2-15.9c0-6.1-2.4-9.2-7.2-12.5
		c-4.8-3.4-11.4-5.1-19.8-5.1h-8.2c-5.1,0-8-4.2-8-9.3v0c0-5.1,2.9-9.3,8-9.3h8.6c6.5,0,11.8-1.6,15.8-4.7c4-3.2,6-9,6-14.4
		c0-6.3-2.3-11.3-6.8-15.1c-4.6-3.7-10.9-5.6-19.1-5.6c-8.2,0-15.2,2-21,6c-3.9,2.6-7.1,6-9.7,10.1c-2.3,3.8-7.7,5.4-11.8,3.8
		L62,233c-5.6-2.2-7.2-9.3-3.8-14.3c4-5.8,9.1-10.8,15.4-14.8c9.7-6.2,20.8-9.3,33.4-9.3c14.7,0,26.4,3.4,35,10.2
		c8.6,6.8,13,15.9,13,27.3c0,13.5-6.1,24.9-18.2,30.7C144.1,265.5,149.7,269.4,153.5,274.6z"/>
	<path class="st1" d="M278.3,196.5h3.5c5.1,0,9.3,4.2,9.3,9.3v114.5c0,5.1-4.2,9.3-9.3,9.3h-3.5c-5.1,0-9.3-4.2-9.3-9.3v-46.9h-66.5
		v46.9c0,5.1-4.2,9.3-9.3,9.3h-3.5c-5.1,0-9.3-4.2-9.3-9.3V205.7c0-5.1,4.2-9.3,9.3-9.3h3.5c5.1,0,9.3,4.2,9.3,9.3v47.3H269v-47.3
		C269,200.6,273.2,196.5,278.3,196.5z"/>
	<path class="st1" d="M448.6,227.5c-6.1-10.5-14.7-18.5-25.8-24.3c-0.9-0.4-1.7-0.9-2.6-1.3c-5.2-2.4-11.2,1.4-11.4,7.2l-0.2,6.2
		c-0.1,3.3,1.8,6.2,4.8,7.5c4,1.8,7.6,4.2,10.8,7c9.7,8.4,14.5,19.4,14.5,33.1c0,13.9-4.8,25-14.5,33.3
		c-9.7,8.2-22.8,12.4-39.3,12.4s-29.6-4.1-39.3-12.4c-9.6-8.2-14.5-19.3-14.5-33.3c0-13.7,4.9-24.7,14.5-33.1c3.3-2.8,6.9-5.2,11-7
		c3-1.4,5-4.3,4.9-7.6l-0.2-6.6c-0.2-5.8-6.2-9.5-11.5-7.2c-6.7,3-12.7,6.9-18,11.9c-13.2,12.4-19.8,29-19.8,49.6
		c0,13.2,3,25,9.1,35.4c6.1,10.5,14.7,18.5,25.8,24.3c11.1,5.7,23.7,8.6,37.9,8.6c21.9,0,39.5-6.2,52.8-18.7
		c13.3-12.4,20-29,20-49.6C457.7,249.8,454.7,238,448.6,227.5z"/>
	<path class="st2" d="M372.7,263.1c0-7.5,5.2-12.9,12.2-12.9c7.5,0,12.2,5.4,12.2,12.9c0,7.3-4.8,12.9-12.2,12.9
		C377.7,275.9,372.7,270.3,372.7,263.1z M375.8,222.2l-3-104.5c-0.2-6.9,5.3-11.4,12.2-11.4h0c6.9,0,12.4,4.5,12.2,11.4l-3,104.5
		c-0.1,5-4.2,8.3-9.2,8.3l0,0C380,230.5,375.9,227.1,375.8,222.2z"/>
</g>
</svg>
